<svg width="28" height="28" viewBox="0 0 28 28" fill="none" xmlns="http://www.w3.org/2000/svg">
<path d="M7 0C6.07174 0 5.1815 0.368749 4.52513 1.02513C3.86875 1.6815 3.5 2.57174 3.5 3.5V5.48275L1.85325 6.36125C1.29339 6.65977 0.825208 7.10486 0.498775 7.64892C0.172341 8.19297 -6.34317e-05 8.81553 1.75068e-08 9.45V24.5C1.75068e-08 25.4283 0.368749 26.3185 1.02513 26.9749C1.6815 27.6313 2.57174 28 3.5 28H24.5C25.4283 28 26.3185 27.6313 26.9749 26.9749C27.6313 26.3185 28 25.4283 28 24.5V9.45C28.0001 8.81553 27.8277 8.19297 27.5012 7.64892C27.1748 7.10486 26.7066 6.65977 26.1467 6.36125L24.5 5.48275V3.5C24.5 2.57174 24.1313 1.6815 23.4749 1.02513C22.8185 0.368749 21.9283 0 21 0L7 0ZM24.5 7.46725L25.3225 7.90475C25.6027 8.05396 25.8371 8.27659 26.0005 8.5488C26.1638 8.821 26.2501 9.13253 26.25 9.45V10.8798L24.5 11.9297V7.46725ZM22.75 12.9797L16.1875 16.9172L14 15.6047L11.8125 16.9172L5.25 12.9797V3.5C5.25 3.03587 5.43437 2.59075 5.76256 2.26256C6.09075 1.93437 6.53587 1.75 7 1.75H21C21.4641 1.75 21.9092 1.93437 22.2374 2.26256C22.5656 2.59075 22.75 3.03587 22.75 3.5V12.9797ZM3.5 11.9297L1.75 10.8798V9.45C1.75021 9.13282 1.83662 8.82167 1.99999 8.5498C2.16336 8.27793 2.39754 8.05557 2.6775 7.9065L3.5 7.46725V11.9297ZM26.25 12.9202V22.9548L17.8885 17.9375L26.25 12.9202ZM26.1888 24.9602C26.0878 25.3307 25.8677 25.6577 25.5625 25.8908C25.2574 26.1239 24.884 26.2501 24.5 26.25H3.5C3.11577 26.25 2.74223 26.1235 2.43703 25.8901C2.13182 25.6567 1.91192 25.3293 1.81125 24.9585L14 17.6453L26.1888 24.9602ZM1.75 22.953V12.9202L10.1115 17.9375L1.75 22.953Z" fill="#403230"/>
</svg>
