<svg width="43" height="34" viewBox="0 0 43 34" fill="none" xmlns="http://www.w3.org/2000/svg">
<path d="M40.8846 0.846191H2.11538C1.68696 0.846191 1.27608 1.01638 0.973135 1.31933C0.670192 1.62227 0.5 2.03315 0.5 2.46158V29.9231C0.5 30.78 0.840383 31.6017 1.44627 32.2076C2.05216 32.8135 2.87392 33.1539 3.73077 33.1539H39.2692C40.1261 33.1539 40.9478 32.8135 41.5537 32.2076C42.1596 31.6017 42.5 30.78 42.5 29.9231V2.46158C42.5 2.03315 42.3298 1.62227 42.0269 1.31933C41.7239 1.01638 41.313 0.846191 40.8846 0.846191ZM36.7311 4.07696L21.5 18.0399L6.26894 4.07696H36.7311ZM39.2692 29.9231H3.73077V6.13456L20.4076 21.4222C20.7056 21.6957 21.0954 21.8475 21.5 21.8475C21.9046 21.8475 22.2944 21.6957 22.5924 21.4222L39.2692 6.13456V29.9231Z" fill="black"/>
</svg>
