<svg width="28" height="28" viewBox="0 0 28 28" fill="none" xmlns="http://www.w3.org/2000/svg">
<path d="M14 9.3334C14 9.02399 13.877 8.72725 13.6583 8.50847C13.4395 8.28968 13.1427 8.16677 12.8333 8.16677C12.5239 8.16677 12.2272 8.28968 12.0084 8.50847C11.7896 8.72725 11.6667 9.02399 11.6667 9.3334V16.3331C11.6667 16.6425 11.7896 16.9393 12.0084 17.1581C12.2272 17.3768 12.5239 17.4998 12.8333 17.4998H17.4998C17.8092 17.4998 18.106 17.3768 18.3248 17.1581C18.5435 16.9393 18.6664 16.6425 18.6664 16.3331C18.6664 16.0237 18.5435 15.727 18.3248 15.5082C18.106 15.2894 17.8092 15.1665 17.4998 15.1665H14V9.3334ZM0.00049067 5.83353C0.000485891 4.56693 0.41275 3.33474 1.17498 2.32317C1.93722 1.3116 3.008 0.575616 4.22551 0.226436C5.44303 -0.122744 6.74112 -0.0661439 7.92363 0.387683C9.10613 0.841511 10.1088 1.6679 10.7801 2.74198C12.8919 2.19565 15.108 2.19565 17.2198 2.74198C17.6675 2.02561 18.2654 1.41502 18.9722 0.952418C19.679 0.48982 20.4778 0.186255 21.3135 0.0627167C22.1491 -0.0608221 23.0017 -0.00138765 23.8121 0.23691C24.6225 0.475208 25.3715 0.886683 26.0073 1.44288C26.6431 1.99908 27.1504 2.68673 27.4944 3.45829C27.8383 4.22984 28.0105 5.06688 27.9991 5.91154C27.9878 6.7562 27.7931 7.58831 27.4286 8.35033C27.064 9.11236 26.5383 9.78612 25.8878 10.325C26.4968 11.8183 26.8328 13.4516 26.8328 15.1665C26.8378 18.168 25.7863 21.0755 23.8626 23.3795L26.4921 26.0068C26.7047 26.2268 26.8222 26.5215 26.8196 26.8274C26.8169 27.1332 26.6942 27.4259 26.4779 27.6422C26.2616 27.8585 25.969 27.9811 25.6631 27.9838C25.3573 27.9865 25.0626 27.8689 24.8425 27.6564L22.213 25.0291C19.909 26.9528 17.0015 28.0043 14 27.9994C10.9985 28.0043 8.09094 26.9528 5.78694 25.0291L3.1597 27.6587C3.05124 27.767 2.9225 27.8529 2.78084 27.9115C2.63917 27.97 2.48737 28.0001 2.33408 28C2.18079 27.9999 2.02902 27.9696 1.88744 27.9108C1.74587 27.8521 1.61725 27.766 1.50893 27.6575C1.40062 27.5491 1.31473 27.4203 1.25617 27.2787C1.19761 27.137 1.16752 26.9852 1.16763 26.8319C1.16785 26.5223 1.29104 26.2255 1.5101 26.0068L4.13733 23.3795C2.21363 21.0755 1.16213 18.168 1.16711 15.1665C1.16711 13.4539 1.5031 11.8183 2.11208 10.325C1.45087 9.77824 0.918696 9.09206 0.553651 8.31558C0.188606 7.5391 -0.000286597 6.69153 0.00049067 5.83353ZM5.8336 2.33366C5.15655 2.33345 4.49398 2.52963 3.92618 2.89841C3.35839 3.2672 2.90974 3.79275 2.63463 4.41139C2.35952 5.03002 2.26975 5.71517 2.37619 6.3838C2.48264 7.05243 2.78075 7.67582 3.23437 8.17844C4.53087 6.18528 6.35346 4.58961 8.5005 3.56795C8.17233 3.18082 7.76374 2.86985 7.30317 2.65669C6.8426 2.44353 6.34111 2.3333 5.8336 2.33366ZM19.4994 3.56795C21.6465 4.58951 23.4691 6.1852 24.7655 8.17844C25.075 7.83369 25.3129 7.43095 25.4655 6.99355C25.6181 6.55616 25.6824 6.09282 25.6545 5.63041C25.6267 5.168 25.5073 4.71571 25.3034 4.29977C25.0994 3.88384 24.8149 3.51253 24.4664 3.20738C24.1179 2.90223 23.7122 2.66931 23.273 2.52212C22.8337 2.37494 22.3696 2.31642 21.9076 2.34996C21.4455 2.3835 20.9948 2.50844 20.5814 2.71751C20.168 2.92659 19.8002 3.21566 19.4994 3.56795ZM14 4.66691C11.2153 4.66691 8.54468 5.77311 6.57562 7.74217C4.60656 9.71122 3.50036 12.3818 3.50036 15.1665C3.50036 17.9512 4.60656 20.6218 6.57562 22.5908C8.54468 24.5599 11.2153 25.6661 14 25.6661C16.7846 25.6661 19.4552 24.5599 21.4243 22.5908C23.3934 20.6218 24.4996 17.9512 24.4996 15.1665C24.4996 12.3818 23.3934 9.71122 21.4243 7.74217C19.4552 5.77311 16.7846 4.66691 14 4.66691Z" fill="#403230"/>
</svg>
