<svg width="32" height="30" viewBox="0 0 32 30" fill="none" xmlns="http://www.w3.org/2000/svg">
<path d="M30.9333 26.9989H28.8V13.7917C28.8 13.4754 28.7388 13.1625 28.6201 12.8728C28.5015 12.5831 28.328 12.323 28.1107 12.1089L17.444 1.326C17.4388 1.32113 17.4339 1.31588 17.4293 1.31029C17.0366 0.927623 16.5248 0.715576 15.994 0.715576C15.4632 0.715576 14.9514 0.927623 14.5587 1.31029L14.544 1.326L3.88933 12.1089C3.672 12.323 3.49851 12.5831 3.37986 12.8728C3.2612 13.1625 3.19996 13.4754 3.2 13.7917V26.9989H1.06667C0.783769 26.9989 0.512458 27.1193 0.312419 27.3336C0.112381 27.5479 0 27.8386 0 28.1417C0 28.4448 0.112381 28.7355 0.312419 28.9498C0.512458 29.1642 0.783769 29.2846 1.06667 29.2846H30.9333C31.2162 29.2846 31.4875 29.1642 31.6876 28.9498C31.8876 28.7355 32 28.4448 32 28.1417C32 27.8386 31.8876 27.5479 31.6876 27.3336C31.4875 27.1193 31.2162 26.9989 30.9333 26.9989ZM5.33333 13.7917L5.348 13.7774L16 2.99886L26.6533 13.7746L26.668 13.7889V26.9989H20.2667V20.1417C20.2667 19.5355 20.0419 18.9541 19.6418 18.5255C19.2418 18.0968 18.6991 17.856 18.1333 17.856H13.8667C13.3009 17.856 12.7583 18.0968 12.3582 18.5255C11.9581 18.9541 11.7333 19.5355 11.7333 20.1417V26.9989H5.33333V13.7917ZM18.1333 26.9989H13.8667V20.1417H18.1333V26.9989Z" fill="#403230"/>
</svg>
