<svg width="53" height="40" viewBox="0 0 53 40" fill="none" xmlns="http://www.w3.org/2000/svg">
<path d="M45.5603 12.3759V8.73713C45.5603 6.43936 44.6475 4.2357 43.0227 2.61092C41.398 0.986152 39.1943 0.0733643 36.8965 0.0733643H16.1035C13.8057 0.0733643 11.602 0.986152 9.97726 2.61092C8.35249 4.2357 7.4397 6.43936 7.4397 8.73713V12.3759C5.48119 12.7736 3.72039 13.8362 2.45565 15.3835C1.1909 16.9309 0.5 18.8679 0.5 20.8664C0.5 22.8649 1.1909 24.8019 2.45565 26.3493C3.72039 27.8967 5.48119 28.9592 7.4397 29.3569V36.4612C7.4397 37.3803 7.80482 38.2618 8.45473 38.9117C9.10464 39.5616 9.9861 39.9267 10.9052 39.9267H42.0948C43.0139 39.9267 43.8954 39.5616 44.5453 38.9117C45.1952 38.2618 45.5603 37.3803 45.5603 36.4612V29.3569C47.5188 28.9592 49.2796 27.8967 50.5444 26.3493C51.8091 24.8019 52.5 22.8649 52.5 20.8664C52.5 18.8679 51.8091 16.9309 50.5444 15.3835C49.2796 13.8362 47.5188 12.7736 45.5603 12.3759ZM16.1035 3.53887H36.8965C38.2752 3.53887 39.5974 4.08655 40.5723 5.06141C41.5471 6.03627 42.0948 7.35847 42.0948 8.73713V12.3759C40.1392 12.778 38.382 13.842 37.1195 15.3887C35.8569 16.9353 35.1662 18.8699 35.1638 20.8664H17.8362C17.8338 18.8699 17.1431 16.9353 15.8805 15.3887C14.618 13.842 12.8608 12.778 10.9052 12.3759V8.73713C10.9052 7.35847 11.4529 6.03627 12.4277 5.06141C13.4026 4.08655 14.7248 3.53887 16.1035 3.53887ZM43.912 26.0647H43.8275C43.368 26.0647 42.9273 26.2472 42.6023 26.5722C42.2773 26.8971 42.0948 27.3379 42.0948 27.7974V36.4612H10.9052V27.7974C10.9052 27.3379 10.7227 26.8971 10.3977 26.5722C10.0727 26.2472 9.63201 26.0647 9.17246 26.0647H9.08799C8.06363 26.048 7.06703 25.7291 6.22336 25.1478C5.3797 24.5666 4.72659 23.7491 4.34606 22.7979C3.96554 21.8467 3.87457 20.8042 4.08459 19.8015C4.2946 18.7988 4.79623 17.8804 5.52647 17.1619C6.25671 16.4433 7.183 15.9565 8.18899 15.7627C9.19498 15.5689 10.2358 15.6767 11.1808 16.0725C12.1257 16.4683 12.9326 17.1345 13.5002 17.9874C14.0677 18.8403 14.3706 19.8419 14.3707 20.8664V29.5302C14.3707 29.9897 14.5533 30.4305 14.8782 30.7554C15.2032 31.0804 15.6439 31.2629 16.1035 31.2629C16.563 31.2629 17.0038 31.0804 17.3287 30.7554C17.6537 30.4305 17.8362 29.9897 17.8362 29.5302V24.3319H35.1638V29.5302C35.1638 29.9897 35.3463 30.4305 35.6713 30.7554C35.9962 31.0804 36.437 31.2629 36.8965 31.2629C37.3561 31.2629 37.7968 31.0804 38.1218 30.7554C38.4467 30.4305 38.6293 29.9897 38.6293 29.5302V20.8664C38.6294 19.8419 38.9323 18.8403 39.4998 17.9874C40.0674 17.1345 40.8743 16.4683 41.8192 16.0725C42.7642 15.6767 43.805 15.5689 44.811 15.7627C45.817 15.9565 46.7433 16.4433 47.4735 17.1619C48.2038 17.8804 48.7054 18.7988 48.9154 19.8015C49.1254 20.8042 49.0345 21.8467 48.6539 22.7979C48.2734 23.7491 47.6203 24.5666 46.7766 25.1478C45.933 25.7291 44.9364 26.048 43.912 26.0647Z" fill="black"/>
</svg>
