<svg width="28" height="28" viewBox="0 0 28 28" fill="none" xmlns="http://www.w3.org/2000/svg">
<path d="M16.838 1.94994C16.876 1.80779 16.9416 1.67454 17.0312 1.55778C17.1207 1.44102 17.2324 1.34305 17.3598 1.26946C17.4872 1.19587 17.6279 1.14811 17.7738 1.1289C17.9196 1.1097 18.0679 1.11943 18.21 1.15753C20.2863 1.69926 22.1807 2.78469 23.698 4.30201C25.2153 5.81933 26.3007 7.7137 26.8425 9.79001C26.8806 9.93213 26.8903 10.0804 26.8711 10.2262C26.8519 10.3721 26.8041 10.5128 26.7305 10.6402C26.657 10.7676 26.559 10.8793 26.4422 10.9688C26.3255 11.0584 26.1922 11.124 26.0501 11.162C25.9555 11.1869 25.8581 11.1996 25.7603 11.1998C25.5135 11.1998 25.2736 11.1183 25.0779 10.9679C24.8822 10.8175 24.7416 10.6067 24.6781 10.3682C24.2362 8.67325 23.3504 7.12678 22.1118 5.88821C20.8732 4.64963 19.3267 3.76378 17.6318 3.32195C17.4895 3.28408 17.3561 3.21854 17.2392 3.12906C17.1223 3.03959 17.0242 2.92795 16.9504 2.80052C16.8767 2.67309 16.8288 2.53237 16.8095 2.38642C16.7902 2.24047 16.7999 2.09215 16.838 1.94994ZM16.5118 7.80199C18.4424 8.3172 19.6828 9.55761 20.198 11.4882C20.2616 11.7267 20.4021 11.9375 20.5978 12.0879C20.7935 12.2383 21.0334 12.3198 21.2802 12.3198C21.378 12.3196 21.4754 12.3069 21.57 12.282C21.7122 12.244 21.8454 12.1784 21.9622 12.0888C22.0789 11.9993 22.1769 11.8876 22.2505 11.7602C22.3241 11.6328 22.3718 11.4921 22.3911 11.3463C22.4103 11.2004 22.4005 11.0521 22.3624 10.91C21.6456 8.2276 19.7724 6.35438 17.09 5.63757C16.9479 5.59961 16.7997 5.59 16.6538 5.60931C16.508 5.62862 16.3674 5.67647 16.2401 5.75012C16.1127 5.82376 16.0011 5.92177 15.9117 6.03854C15.8222 6.15531 15.7566 6.28856 15.7187 6.43068C15.6807 6.5728 15.6711 6.721 15.6904 6.86683C15.7097 7.01266 15.7576 7.15325 15.8312 7.28059C15.9049 7.40793 16.0029 7.51952 16.1196 7.60898C16.2364 7.69844 16.3697 7.76403 16.5118 7.80199ZM27.9835 21.1511C27.7339 23.0482 26.8022 24.7895 25.3625 26.0499C23.9229 27.3102 22.0736 28.0034 20.1602 28C9.0441 28 1.26682e-05 18.9559 1.26682e-05 7.83979C-0.00341734 5.92638 0.689781 4.07715 1.95014 2.63748C3.21049 1.1978 4.95182 0.266149 6.84888 0.0165169C7.3286 -0.0420584 7.8144 0.0560839 8.23375 0.296293C8.65311 0.536503 8.98354 0.905896 9.1757 1.34933L12.1325 7.95039V7.96719C12.2797 8.30663 12.3404 8.67722 12.3094 9.04587C12.2784 9.41452 12.1565 9.76974 11.9547 10.0798C11.9295 10.1176 11.9029 10.1526 11.8749 10.1876L8.9601 13.6428C10.0087 15.7737 12.2375 17.9829 14.3964 19.0343L17.804 16.1349C17.8374 16.1067 17.8725 16.0806 17.909 16.0565C18.2188 15.8498 18.5752 15.7237 18.9461 15.6895C19.3169 15.6553 19.6904 15.714 20.0328 15.8605L20.051 15.8689L26.6465 18.8243C27.0907 19.0158 27.461 19.3459 27.702 19.7653C27.943 20.1847 28.0417 20.6709 27.9835 21.1511ZM25.7603 20.8711C25.7603 20.8711 25.7505 20.8711 25.7449 20.8711L19.1648 17.9241L15.7558 20.8235C15.7227 20.8515 15.6881 20.8777 15.6522 20.9019C15.3298 21.117 14.9572 21.2447 14.5707 21.2727C14.1842 21.3007 13.7971 21.2279 13.4471 21.0615C10.8249 19.7945 8.21109 17.2003 6.94268 14.6061C6.77472 14.2587 6.69935 13.8737 6.72388 13.4887C6.74841 13.1036 6.872 12.7313 7.08268 12.408C7.10643 12.3701 7.13311 12.334 7.16248 12.3002L10.0801 8.8408L7.14008 2.26074C7.13953 2.25515 7.13953 2.24952 7.14008 2.24394C5.78242 2.42104 4.53589 3.08698 3.6339 4.11704C2.73192 5.1471 2.23637 6.47064 2.24003 7.83979C2.24522 12.5909 4.1349 17.146 7.49446 20.5055C10.854 23.8651 15.4091 25.7548 20.1602 25.76C21.5285 25.7647 22.8517 25.2708 23.8824 24.3708C24.913 23.4708 25.5806 22.2262 25.7603 20.8697V20.8711Z" fill="#403230"/>
</svg>
