<svg width="43" height="42" viewBox="0 0 43 42" fill="none" xmlns="http://www.w3.org/2000/svg">
<path d="M21.5 0C17.3466 0 13.2865 1.23163 9.83303 3.53914C6.3796 5.84665 3.68798 9.1264 2.09854 12.9636C0.509099 16.8009 0.093229 21.0233 0.903518 25.0969C1.71381 29.1705 3.71386 32.9123 6.65077 35.8492C9.58767 38.7861 13.3295 40.7862 17.4031 41.5965C21.4767 42.4068 25.6991 41.9909 29.5364 40.4015C33.3736 38.812 36.6534 36.1204 38.9609 32.667C41.2684 29.2135 42.5 25.1534 42.5 21C42.4941 15.4323 40.2797 10.0942 36.3427 6.15725C32.4058 2.22026 27.0677 0.00587963 21.5 0ZM21.5 38.7692C17.9856 38.7692 14.5501 37.7271 11.628 35.7746C8.70582 33.8221 6.42829 31.0469 5.08338 27.8C3.73847 24.5531 3.38658 20.9803 4.07221 17.5334C4.75784 14.0865 6.45019 10.9203 8.93526 8.43526C11.4203 5.95018 14.5865 4.25783 18.0334 3.5722C21.4803 2.88657 25.0531 3.23846 28.3 4.58337C31.5469 5.92828 34.3221 8.20581 36.2746 11.1279C38.2271 14.0501 39.2692 17.4856 39.2692 21C39.2639 25.711 37.3901 30.2276 34.0588 33.5588C30.7276 36.8901 26.2111 38.7639 21.5 38.7692ZM29.5769 25.0385C29.5769 26.5379 28.9813 27.976 27.921 29.0363C26.8607 30.0966 25.4226 30.6923 23.9231 30.6923H23.1154V32.3077C23.1154 32.7361 22.9452 33.147 22.6423 33.4499C22.3393 33.7529 21.9284 33.9231 21.5 33.9231C21.0716 33.9231 20.6607 33.7529 20.3578 33.4499C20.0548 33.147 19.8846 32.7361 19.8846 32.3077V30.6923H16.6539C16.2254 30.6923 15.8145 30.5221 15.5116 30.2192C15.2087 29.9162 15.0385 29.5053 15.0385 29.0769C15.0385 28.6485 15.2087 28.2376 15.5116 27.9347C15.8145 27.6317 16.2254 27.4615 16.6539 27.4615H23.9231C24.5657 27.4615 25.182 27.2062 25.6365 26.7518C26.0909 26.2974 26.3462 25.6811 26.3462 25.0385C26.3462 24.3958 26.0909 23.7795 25.6365 23.3251C25.182 22.8707 24.5657 22.6154 23.9231 22.6154H19.0769C17.5774 22.6154 16.1394 22.0197 15.0791 20.9594C14.0188 19.8991 13.4231 18.461 13.4231 16.9615C13.4231 15.462 14.0188 14.024 15.0791 12.9637C16.1394 11.9034 17.5774 11.3077 19.0769 11.3077H19.8846V9.69231C19.8846 9.26388 20.0548 8.853 20.3578 8.55006C20.6607 8.24711 21.0716 8.07692 21.5 8.07692C21.9284 8.07692 22.3393 8.24711 22.6423 8.55006C22.9452 8.853 23.1154 9.26388 23.1154 9.69231V11.3077H26.3462C26.7746 11.3077 27.1855 11.4779 27.4884 11.7808C27.7914 12.0838 27.9615 12.4946 27.9615 12.9231C27.9615 13.3515 27.7914 13.7624 27.4884 14.0653C27.1855 14.3683 26.7746 14.5385 26.3462 14.5385H19.0769C18.4343 14.5385 17.818 14.7937 17.3636 15.2482C16.9091 15.7026 16.6539 16.3189 16.6539 16.9615C16.6539 17.6042 16.9091 18.2205 17.3636 18.6749C17.818 19.1293 18.4343 19.3846 19.0769 19.3846H23.9231C25.4226 19.3846 26.8607 19.9803 27.921 21.0406C28.9813 22.1009 29.5769 23.539 29.5769 25.0385Z" fill="#403230"/>
</svg>
