<svg width="43" height="42" viewBox="0 0 43 42" fill="none" xmlns="http://www.w3.org/2000/svg">
<path d="M21.497 11.3654C19.5921 11.3654 17.7299 11.9303 16.146 12.9887C14.5621 14.047 13.3276 15.5512 12.5986 17.3112C11.8696 19.0711 11.6789 21.0077 12.0505 22.876C12.4221 24.7443 13.3395 26.4605 14.6865 27.8075C16.0335 29.1545 17.7496 30.0718 19.618 30.4435C21.4863 30.8151 23.4229 30.6244 25.1828 29.8954C26.9428 29.1664 28.447 27.9319 29.5053 26.348C30.5637 24.7641 31.1285 22.9019 31.1285 20.997C31.1259 18.4434 30.1103 15.9951 28.3046 14.1894C26.4989 12.3837 24.0506 11.3681 21.497 11.3654ZM21.497 27.418C20.227 27.418 18.9856 27.0414 17.9297 26.3359C16.8737 25.6303 16.0507 24.6275 15.5647 23.4542C15.0787 22.2809 14.9516 20.9899 15.1993 19.7443C15.4471 18.4988 16.0586 17.3546 16.9566 16.4566C17.8546 15.5586 18.9988 14.9471 20.2443 14.6993C21.4899 14.4516 22.7809 14.5787 23.9542 15.0647C25.1275 15.5507 26.1303 16.3737 26.8359 17.4297C27.5414 18.4856 27.918 19.727 27.918 20.997C27.918 22.7 27.2415 24.3332 26.0373 25.5373C24.8332 26.7415 23.2 27.418 21.497 27.418ZM39.1548 21.4304C39.1629 21.1415 39.1629 20.8525 39.1548 20.5636L42.1486 16.8233C42.3056 16.6269 42.4143 16.3964 42.4658 16.1504C42.5174 15.9043 42.5105 15.6496 42.4456 15.4067C41.9548 13.5618 41.2207 11.7905 40.2625 10.1394C40.137 9.92336 39.9628 9.73955 39.7538 9.60265C39.5448 9.46575 39.3067 9.37952 39.0585 9.35084L34.2989 8.82111C34.1009 8.61243 33.9003 8.41177 33.6969 8.21914L33.1351 3.44751C33.1062 3.19912 33.0197 2.96092 32.8824 2.75189C32.7452 2.54286 32.561 2.3688 32.3445 2.24357C30.6928 1.28713 28.9216 0.553699 27.0773 0.0624208C26.8342 -0.00219706 26.5794 -0.00880613 26.3333 0.0431261C26.0873 0.0950584 25.8568 0.204079 25.6606 0.3614L21.9304 3.33915C21.6415 3.33915 21.3525 3.33915 21.0636 3.33915L17.3233 0.351367C17.1269 0.19439 16.8964 0.0857329 16.6504 0.0341505C16.4043 -0.0174319 16.1496 -0.010498 15.9067 0.0543943C14.0621 0.546059 12.2909 1.28018 10.6394 2.23754C10.4234 2.36301 10.2396 2.53718 10.1026 2.74619C9.96575 2.9552 9.87952 3.19328 9.85084 3.44149L9.32111 8.2091C9.11243 8.40842 8.91177 8.60908 8.71914 8.81108L3.94751 9.35887C3.69912 9.38777 3.46092 9.4743 3.25189 9.61156C3.04286 9.74882 2.8688 9.93301 2.74357 10.1495C1.78713 11.8012 1.0537 13.5724 0.562421 15.4167C0.497803 15.6598 0.491194 15.9146 0.543126 16.1607C0.595058 16.4067 0.704079 16.6371 0.8614 16.8334L3.83915 20.5636C3.83915 20.8525 3.83915 21.1415 3.83915 21.4304L0.851367 25.1707C0.69439 25.367 0.585733 25.5975 0.534151 25.8436C0.482568 26.0897 0.489502 26.3444 0.554394 26.5873C1.04518 28.4321 1.77934 30.2034 2.73754 31.8546C2.86301 32.0706 3.03718 32.2544 3.24619 32.3913C3.4552 32.5282 3.69328 32.6145 3.94149 32.6431L8.70108 33.1729C8.9004 33.3816 9.10106 33.5822 9.30305 33.7748L9.85887 38.5465C9.88777 38.7949 9.9743 39.0331 10.1116 39.2421C10.2488 39.4511 10.433 39.6252 10.6495 39.7504C12.3012 40.7069 14.0724 41.4403 15.9167 41.9316C16.1598 41.9962 16.4146 42.0028 16.6607 41.9509C16.9067 41.8989 17.1371 41.7899 17.3334 41.6326L21.0636 38.6548C21.3525 38.6629 21.6415 38.6629 21.9304 38.6548L25.6707 41.6486C25.867 41.8056 26.0975 41.9143 26.3436 41.9658C26.5897 42.0174 26.8444 42.0105 27.0873 41.9456C28.9321 41.4548 30.7034 40.7207 32.3546 39.7625C32.5706 39.637 32.7544 39.4628 32.8913 39.2538C33.0282 39.0448 33.1145 38.8067 33.1431 38.5585L33.6729 33.7989C33.8816 33.6009 34.0822 33.4003 34.2748 33.1969L39.0465 32.6351C39.2949 32.6062 39.5331 32.5197 39.7421 32.3824C39.9511 32.2452 40.1252 32.061 40.2504 31.8445C41.2069 30.1928 41.9403 28.4216 42.4316 26.5773C42.4962 26.3342 42.5028 26.0794 42.4509 25.8333C42.3989 25.5873 42.2899 25.3568 42.1326 25.1606L39.1548 21.4304ZM35.9242 20.1261C35.9584 20.7062 35.9584 21.2878 35.9242 21.8678C35.9003 22.265 36.0248 22.6568 36.2734 22.9674L39.1207 26.5251C38.794 27.5634 38.3757 28.5707 37.8706 29.535L33.3358 30.0486C32.9408 30.0925 32.5762 30.2812 32.3124 30.5784C31.9262 31.0128 31.5148 31.4242 31.0804 31.8104C30.7832 32.0742 30.5945 32.4388 30.5506 32.8338L30.047 37.3646C29.0828 37.8699 28.0756 38.2882 27.0371 38.6147L23.4775 35.7674C23.1926 35.5398 22.8388 35.4159 22.4742 35.4162H22.3779C21.7978 35.4503 21.2162 35.4503 20.6362 35.4162C20.239 35.3923 19.8472 35.5167 19.5366 35.7654L15.9689 38.6147C14.9305 38.288 13.9233 37.8696 12.959 37.3646L12.4453 32.8358C12.4015 32.4408 12.2128 32.0762 11.9156 31.8124C11.4812 31.4262 11.0698 31.0148 10.6836 30.5804C10.4198 30.2832 10.0551 30.0945 9.66022 30.0506L5.12938 29.545C4.62411 28.5808 4.20576 27.5736 3.87928 26.5351L6.72661 22.9755C6.97524 22.6649 7.09966 22.273 7.07576 21.8759C7.04164 21.2958 7.04164 20.7142 7.07576 20.1342C7.09966 19.737 6.97524 19.3452 6.72661 19.0346L3.87928 15.4689C4.20601 14.4305 4.62435 13.4233 5.12938 12.459L9.65821 11.9453C10.0531 11.9015 10.4178 11.7128 10.6816 11.4156C11.0678 10.9812 11.4792 10.5698 11.9136 10.1836C12.2119 9.9196 12.4015 9.55414 12.4453 9.15821L12.949 4.62938C13.9132 4.12411 14.9204 3.70576 15.9589 3.37928L19.5185 6.22661C19.8291 6.47524 20.221 6.59966 20.6181 6.57576C21.1982 6.54164 21.7797 6.54164 22.3598 6.57576C22.757 6.59966 23.1488 6.47524 23.4594 6.22661L27.0251 3.37928C28.0634 3.70601 29.0707 4.12435 30.035 4.62938L30.5486 9.15821C30.5925 9.55314 30.7812 9.91777 31.0784 10.1816C31.5128 10.5678 31.9242 10.9792 32.3104 11.4136C32.5742 11.7107 32.9388 11.8995 33.3338 11.9433L37.8646 12.447C38.3699 13.4111 38.7882 14.4184 39.1147 15.4568L36.2674 19.0165C36.0163 19.3297 35.8918 19.7256 35.9182 20.1261H35.9242Z" fill="black"/>
</svg>
