<svg width="35" height="42" viewBox="0 0 35 42" fill="none" xmlns="http://www.w3.org/2000/svg">
<path d="M25.2777 26.4443C25.2777 26.8569 25.1138 27.2526 24.8221 27.5443C24.5304 27.836 24.1347 27.9999 23.7222 27.9999H11.2776C10.8651 27.9999 10.4694 27.836 10.1777 27.5443C9.88596 27.2526 9.72207 26.8569 9.72207 26.4443C9.72207 26.0318 9.88596 25.6361 10.1777 25.3444C10.4694 25.0527 10.8651 24.8888 11.2776 24.8888H23.7222C24.1347 24.8888 24.5304 25.0527 24.8221 25.3444C25.1138 25.6361 25.2777 26.0318 25.2777 26.4443ZM23.7222 18.6665H11.2776C10.8651 18.6665 10.4694 18.8304 10.1777 19.1221C9.88596 19.4138 9.72207 19.8095 9.72207 20.2221C9.72207 20.6346 9.88596 21.0303 10.1777 21.322C10.4694 21.6138 10.8651 21.7776 11.2776 21.7776H23.7222C24.1347 21.7776 24.5304 21.6138 24.8221 21.322C25.1138 21.0303 25.2777 20.6346 25.2777 20.2221C25.2777 19.8095 25.1138 19.4138 24.8221 19.1221C24.5304 18.8304 24.1347 18.6665 23.7222 18.6665ZM34.6111 6.22198V38.8889C34.6111 39.714 34.2833 40.5053 33.6999 41.0888C33.1164 41.6722 32.3251 42 31.5 42H3.4998C2.67468 42 1.88335 41.6722 1.2999 41.0888C0.716451 40.5053 0.388672 39.714 0.388672 38.8889V6.22198C0.388672 5.39686 0.716451 4.60553 1.2999 4.02208C1.88335 3.43863 2.67468 3.11085 3.4998 3.11085H10.5504C11.4244 2.13225 12.4953 1.34928 13.6929 0.813198C14.8905 0.277113 16.1878 0 17.4999 0C18.812 0 20.1093 0.277113 21.3069 0.813198C22.5045 1.34928 23.5753 2.13225 24.4494 3.11085H31.5C32.3251 3.11085 33.1164 3.43863 33.6999 4.02208C34.2833 4.60553 34.6111 5.39686 34.6111 6.22198ZM11.2776 9.33311H23.7222C23.7222 7.68287 23.0666 6.10021 21.8997 4.93331C20.7328 3.76641 19.1501 3.11085 17.4999 3.11085C15.8497 3.11085 14.267 3.76641 13.1001 4.93331C11.9332 6.10021 11.2776 7.68287 11.2776 9.33311ZM31.5 6.22198H26.2986C26.6524 7.22108 26.8333 8.27321 26.8333 9.33311V10.8887C26.8333 11.3012 26.6694 11.6969 26.3777 11.9886C26.086 12.2804 25.6903 12.4442 25.2777 12.4442H9.72207C9.30951 12.4442 8.91384 12.2804 8.62212 11.9886C8.33039 11.6969 8.1665 11.3012 8.1665 10.8887V9.33311C8.16654 8.27321 8.34737 7.22108 8.70123 6.22198H3.4998V38.8889H31.5V6.22198Z" fill="#403230"/>
</svg>
