<svg width="43" height="42" viewBox="0 0 43 42" fill="none" xmlns="http://www.w3.org/2000/svg">
<rect width="43" height="42" fill="#999999"/>
<g id="Roofing" clip-path="url(#clip0_0_1)">
<rect width="1440" height="6728" transform="translate(-1096 -1398)" fill="white"/>
<g id="Why choose us">
<g id="Frame 212">
<g id="Frame 12">
<g id="time-icon">
<rect width="100" height="100" transform="translate(-28.5 -29)" fill="#FFBD14"/>
<g id="Frame 225">
<path id="Vector" d="M42.4945 22.7668C42.1511 26.759 40.6747 30.5701 38.2389 33.7516C35.8032 36.9332 32.5094 39.3529 28.7451 40.7261C24.9809 42.0993 20.9027 42.3688 16.9904 41.503C13.0782 40.6372 9.49461 38.672 6.66129 35.8387C3.82798 33.0054 1.8628 29.4218 0.996978 25.5096C0.131153 21.5973 0.400694 17.5192 1.77389 13.7549C3.14709 9.99062 5.56681 6.69685 8.74838 4.26108C11.9299 1.82531 15.741 0.348883 19.7332 0.00549122C19.9454 -0.0120197 20.1591 0.0124471 20.3619 0.0774951C20.5647 0.142543 20.7527 0.246898 20.9151 0.384602C21.0776 0.522306 21.2113 0.690662 21.3087 0.880057C21.4061 1.06945 21.4653 1.27618 21.4828 1.48843C21.5003 1.70069 21.4759 1.91431 21.4108 2.11711C21.3458 2.31991 21.2414 2.50791 21.1037 2.67037C20.966 2.83284 20.7976 2.9666 20.6082 3.064C20.4188 3.1614 20.2121 3.22055 19.9999 3.23806C16.621 3.52837 13.3953 4.77771 10.7024 6.83907C8.00948 8.90043 5.96134 11.6881 4.79896 14.8739C3.63658 18.0598 3.40832 21.5115 4.14105 24.8227C4.87378 28.1339 6.537 31.167 8.93502 33.565C11.333 35.963 14.3661 37.6262 17.6773 38.359C20.9885 39.0917 24.4402 38.8634 27.6261 37.701C30.8119 36.5387 33.5996 34.4905 35.6609 31.7976C37.7223 29.1047 38.9716 25.879 39.2619 22.5001C39.2973 22.0715 39.5015 21.6744 39.8296 21.3963C40.1577 21.1182 40.5829 20.9818 41.0116 21.0172C41.4402 21.0526 41.8373 21.2568 42.1154 21.5849C42.3935 21.913 42.5299 22.3382 42.4945 22.7668ZM19.8665 9.7032V21.0172C19.8665 21.4459 20.0368 21.857 20.3399 22.1601C20.643 22.4632 21.0541 22.6335 21.4828 22.6335H32.7968C33.2255 22.6335 33.6366 22.4632 33.9397 22.1601C34.2428 21.857 34.4131 21.4459 34.4131 21.0172C34.4131 20.5885 34.2428 20.1774 33.9397 19.8743C33.6366 19.5712 33.2255 19.4009 32.7968 19.4009H23.0991V9.7032C23.0991 9.27454 22.9288 8.86343 22.6257 8.56032C22.3226 8.2572 21.9115 8.08692 21.4828 8.08692C21.0541 8.08692 20.643 8.2572 20.3399 8.56032C20.0368 8.86343 19.8665 9.27454 19.8665 9.7032ZM27.9479 4.85435C28.4275 4.85435 28.8962 4.71216 29.2949 4.44576C29.6936 4.17936 30.0043 3.80071 30.1878 3.35771C30.3713 2.9147 30.4193 2.42723 30.3258 1.95694C30.2322 1.48664 30.0013 1.05465 29.6623 0.71559C29.3232 0.376527 28.8912 0.145623 28.4209 0.0520761C27.9506 -0.041471 27.4632 0.00654077 27.0202 0.19004C26.5772 0.373539 26.1985 0.684284 25.9321 1.08298C25.6657 1.48167 25.5235 1.95041 25.5235 2.42992C25.5235 3.07292 25.7789 3.68958 26.2336 4.14425C26.6883 4.59892 27.3049 4.85435 27.9479 4.85435ZM35.2212 9.7032C35.7007 9.7032 36.1695 9.56101 36.5682 9.29461C36.9669 9.02821 37.2776 8.64957 37.4611 8.20656C37.6446 7.76356 37.6926 7.27608 37.5991 6.80579C37.5055 6.3355 37.2746 5.90351 36.9356 5.56444C36.5965 5.22538 36.1645 4.99448 35.6942 4.90093C35.2239 4.80738 34.7364 4.8554 34.2934 5.03889C33.8504 5.22239 33.4718 5.53314 33.2054 5.93183C32.939 6.33053 32.7968 6.79927 32.7968 7.27877C32.7968 7.92177 33.0522 8.53843 33.5069 8.9931C33.9616 9.44777 34.5782 9.7032 35.2212 9.7032ZM40.0701 16.9765C40.5496 16.9765 41.0183 16.8343 41.417 16.5679C41.8157 16.3015 42.1265 15.9228 42.31 15.4798C42.4935 15.0368 42.5415 14.5494 42.4479 14.0791C42.3544 13.6088 42.1235 13.1768 41.7844 12.8377C41.4454 12.4987 41.0134 12.2678 40.5431 12.1742C40.0728 12.0807 39.5853 12.1287 39.1423 12.3122C38.6993 12.4957 38.3206 12.8064 38.0542 13.2051C37.7878 13.6038 37.6457 14.0725 37.6457 14.5521C37.6457 15.1951 37.9011 15.8117 38.3558 16.2664C38.8104 16.7211 39.4271 16.9765 40.0701 16.9765Z" fill="#403230"/>
</g>
</g>
</g>
</g>
</g>
</g>
<defs>
<clipPath id="clip0_0_1">
<rect width="1440" height="6728" fill="white" transform="translate(-1096 -1398)"/>
</clipPath>
</defs>
</svg>
